# 3ds Max Wavefront OBJ Exporter v0.97b - (c)2007 guruware
# File Created: 09.08.2015 15:40:24

#
# object ChamferBox001
#

v  1.1100 -7.9550 0.0500
v  0.0282 21.9550 0.0500
v  -0.0282 21.9550 0.0500
v  -1.1100 -7.9550 0.0500
v  -0.0282 21.9550 0.1000
v  -0.0282 21.9722 0.0966
v  -0.0285 21.9709 0.0966
v  -0.0288 21.9672 0.0966
v  -0.0290 21.9616 0.0966
v  -0.0291 21.9550 0.0966
v  -1.1444 -7.9550 0.0966
v  -1.1100 -7.9550 0.1000
v  -1.1418 -7.9616 0.0966
v  -1.1344 -7.9672 0.0966
v  -1.1232 -7.9709 0.0966
v  -1.1100 -7.9722 0.0966
v  1.1100 -7.9722 0.0966
v  1.1100 -7.9550 0.1000
v  1.1232 -7.9709 0.0966
v  1.1344 -7.9672 0.0966
v  1.1418 -7.9616 0.0966
v  1.1444 -7.9550 0.0966
v  0.0291 21.9550 0.0966
v  0.0282 21.9550 0.1000
v  0.0290 21.9616 0.0966
v  0.0288 21.9672 0.0966
v  0.0285 21.9709 0.0966
v  0.0282 21.9722 0.0966
v  -0.0288 21.9844 0.0868
v  -0.0282 21.9868 0.0868
v  -0.0293 21.9775 0.0868
v  -0.0297 21.9672 0.0868
v  -0.0298 21.9550 0.0868
v  -1.1736 -7.9550 0.0868
v  -1.1688 -7.9672 0.0868
v  -1.1550 -7.9775 0.0868
v  -1.1344 -7.9844 0.0868
v  -1.1100 -7.9868 0.0868
v  1.1100 -7.9868 0.0868
v  1.1344 -7.9844 0.0868
v  1.1550 -7.9775 0.0868
v  1.1688 -7.9672 0.0868
v  1.1736 -7.9550 0.0868
v  0.0298 21.9550 0.0868
v  0.0297 21.9672 0.0868
v  0.0293 21.9775 0.0868
v  0.0288 21.9844 0.0868
v  0.0282 21.9868 0.0868
v  -0.0290 21.9934 0.0722
v  -0.0282 21.9966 0.0722
v  -0.0297 21.9844 0.0722
v  -0.0301 21.9709 0.0722
v  -0.0303 21.9550 0.0722
v  -1.1931 -7.9550 0.0722
v  -1.1868 -7.9709 0.0722
v  -1.1688 -7.9844 0.0722
v  -1.1418 -7.9934 0.0722
v  -1.1100 -7.9966 0.0722
v  1.1100 -7.9966 0.0722
v  1.1418 -7.9934 0.0722
v  1.1688 -7.9844 0.0722
v  1.1868 -7.9709 0.0722
v  1.1931 -7.9550 0.0722
v  0.0303 21.9550 0.0722
v  0.0301 21.9709 0.0722
v  0.0297 21.9844 0.0722
v  0.0290 21.9934 0.0722
v  0.0282 21.9966 0.0722
v  -0.0291 21.9966 0.0550
v  -0.0282 22.0000 0.0550
v  -0.0298 21.9868 0.0550
v  -0.0303 21.9722 0.0550
v  -0.0305 21.9550 0.0550
v  -1.2000 -7.9550 0.0550
v  -1.1931 -7.9722 0.0550
v  -1.1736 -7.9868 0.0550
v  -1.1444 -7.9966 0.0550
v  -1.1100 -8.0000 0.0550
v  1.1100 -8.0000 0.0550
v  1.1444 -7.9966 0.0550
v  1.1736 -7.9868 0.0550
v  1.1931 -7.9722 0.0550
v  1.2000 -7.9550 0.0550
v  0.0305 21.9550 0.0550
v  0.0303 21.9722 0.0550
v  0.0298 21.9868 0.0550
v  0.0291 21.9966 0.0550
v  0.0282 22.0000 0.0550
v  -0.0291 21.9966 0.0450
v  -0.0282 22.0000 0.0450
v  -0.0298 21.9868 0.0450
v  -0.0303 21.9722 0.0450
v  -0.0305 21.9550 0.0450
v  -1.2000 -7.9550 0.0450
v  -1.1931 -7.9722 0.0450
v  -1.1736 -7.9868 0.0450
v  -1.1444 -7.9966 0.0450
v  -1.1100 -8.0000 0.0450
v  1.1100 -8.0000 0.0450
v  1.1444 -7.9966 0.0450
v  1.1736 -7.9868 0.0450
v  1.1931 -7.9722 0.0450
v  1.2000 -7.9550 0.0450
v  0.0305 21.9550 0.0450
v  0.0303 21.9722 0.0450
v  0.0298 21.9868 0.0450
v  0.0291 21.9966 0.0450
v  0.0282 22.0000 0.0450
v  -0.0290 21.9934 0.0278
v  -0.0282 21.9966 0.0278
v  -0.0297 21.9844 0.0278
v  -0.0301 21.9709 0.0278
v  -0.0303 21.9550 0.0278
v  -1.1931 -7.9550 0.0278
v  -1.1868 -7.9709 0.0278
v  -1.1688 -7.9844 0.0278
v  -1.1418 -7.9934 0.0278
v  -1.1100 -7.9966 0.0278
v  1.1100 -7.9966 0.0278
v  1.1418 -7.9934 0.0278
v  1.1688 -7.9844 0.0278
v  1.1868 -7.9709 0.0278
v  1.1931 -7.9550 0.0278
v  0.0303 21.9550 0.0278
v  0.0301 21.9709 0.0278
v  0.0297 21.9844 0.0278
v  0.0290 21.9934 0.0278
v  0.0282 21.9966 0.0278
v  -0.0288 21.9844 0.0132
v  -0.0282 21.9868 0.0132
v  -0.0293 21.9775 0.0132
v  -0.0297 21.9672 0.0132
v  -0.0298 21.9550 0.0132
v  -1.1736 -7.9550 0.0132
v  -1.1688 -7.9672 0.0132
v  -1.1550 -7.9775 0.0132
v  -1.1344 -7.9844 0.0132
v  -1.1100 -7.9868 0.0132
v  1.1100 -7.9868 0.0132
v  1.1344 -7.9844 0.0132
v  1.1550 -7.9775 0.0132
v  1.1688 -7.9672 0.0132
v  1.1736 -7.9550 0.0132
v  0.0298 21.9550 0.0132
v  0.0297 21.9672 0.0132
v  0.0293 21.9775 0.0132
v  0.0288 21.9844 0.0132
v  0.0282 21.9868 0.0132
v  -0.0285 21.9709 0.0034
v  -0.0282 21.9722 0.0034
v  -0.0288 21.9672 0.0034
v  -0.0290 21.9616 0.0034
v  -0.0291 21.9550 0.0034
v  -1.1444 -7.9550 0.0034
v  -1.1418 -7.9616 0.0034
v  -1.1344 -7.9672 0.0034
v  -1.1232 -7.9709 0.0034
v  -1.1100 -7.9722 0.0034
v  1.1100 -7.9722 0.0034
v  1.1232 -7.9709 0.0034
v  1.1344 -7.9672 0.0034
v  1.1418 -7.9616 0.0034
v  1.1444 -7.9550 0.0034
v  0.0291 21.9550 0.0034
v  0.0290 21.9616 0.0034
v  0.0288 21.9672 0.0034
v  0.0285 21.9709 0.0034
v  0.0282 21.9722 0.0034
v  -0.0282 21.9550 0.0000
v  -1.1100 -7.9550 -0.0000
v  1.1100 -7.9550 -0.0000
v  0.0282 21.9550 0.0000
# 172 vertices

vn 0.0000 -0.0000 1.0000
vn -0.8296 0.0992 0.5495
vn -0.5786 0.3293 0.7462
vn -0.9472 0.0809 0.3104
vn -0.9908 0.0287 0.1322
vn -0.9956 0.0120 0.0930
vn -0.9965 0.0119 0.0825
vn -0.3936 -0.0362 0.9186
vn -0.1085 -0.1066 0.9884
vn -0.3724 -0.1543 0.9152
vn -0.2850 -0.2850 0.9152
vn -0.1543 -0.3724 0.9152
vn -0.0398 -0.3925 0.9189
vn 0.0398 -0.3925 0.9189
vn 0.1086 -0.1066 0.9884
vn 0.1543 -0.3724 0.9152
vn 0.2850 -0.2850 0.9152
vn 0.3724 -0.1543 0.9152
vn 0.3936 -0.0362 0.9186
vn 0.9965 0.0117 0.0825
vn 0.8297 0.0989 0.5494
vn 0.9956 0.0120 0.0930
vn 0.9908 0.0287 0.1322
vn 0.9472 0.0809 0.3104
vn 0.5786 0.3293 0.7462
vn -0.9906 0.0871 0.1052
vn -0.6092 0.5667 0.5548
vn -0.9987 0.0287 0.0426
vn -0.9995 0.0115 0.0304
vn -0.9995 0.0122 0.0275
vn -0.7121 -0.0637 0.6992
vn -0.6641 -0.2751 0.6952
vn -0.5083 -0.5083 0.6952
vn -0.2751 -0.6641 0.6952
vn -0.0703 -0.7112 0.6995
vn 0.0703 -0.7112 0.6995
vn 0.2751 -0.6641 0.6952
vn 0.5083 -0.5083 0.6952
vn 0.6641 -0.2751 0.6952
vn 0.7121 -0.0635 0.6992
vn 0.9995 0.0120 0.0276
vn 0.9995 0.0115 0.0304
vn 0.9987 0.0287 0.0426
vn 0.9906 0.0871 0.1052
vn 0.6092 0.5667 0.5548
vn -0.9953 0.0875 0.0414
vn -0.6198 0.7263 0.2971
vn -0.9995 0.0285 0.0168
vn -0.9999 0.0113 0.0121
vn -0.9999 0.0123 0.0110
vn -0.9227 -0.0812 0.3769
vn -0.8567 -0.3549 0.3744
vn -0.6557 -0.6557 0.3744
vn -0.3549 -0.8567 0.3744
vn -0.0901 -0.9218 0.3771
vn 0.0901 -0.9218 0.3771
vn 0.3548 -0.8567 0.3744
vn 0.6557 -0.6557 0.3744
vn 0.8567 -0.3549 0.3744
vn 0.9227 -0.0811 0.3769
vn 0.9999 0.0122 0.0111
vn 0.9999 0.0113 0.0121
vn 0.9995 0.0285 0.0168
vn 0.9953 0.0875 0.0414
vn 0.6198 0.7263 0.2971
vn -0.9963 0.0849 0.0090
vn -0.6408 0.7640 0.0748
vn -0.9996 0.0279 0.0038
vn -0.9999 0.0112 0.0028
vn -0.9999 0.0123 0.0025
vn -0.9914 -0.0873 0.0970
vn -0.9195 -0.3809 0.0968
vn -0.7038 -0.7038 0.0968
vn -0.3809 -0.9195 0.0968
vn -0.0970 -0.9905 0.0970
vn 0.0970 -0.9905 0.0970
vn 0.3809 -0.9195 0.0968
vn 0.7038 -0.7038 0.0968
vn 0.9195 -0.3809 0.0968
vn 0.9914 -0.0873 0.0970
vn 0.9999 0.0123 0.0025
vn 0.9999 0.0112 0.0028
vn 0.9996 0.0279 0.0038
vn 0.9963 0.0849 0.0090
vn 0.6408 0.7640 0.0748
vn -0.9963 0.0849 -0.0090
vn -0.6408 0.7640 -0.0748
vn -0.9996 0.0279 -0.0038
vn -0.9999 0.0112 -0.0028
vn -0.9999 0.0123 -0.0025
vn -0.9914 -0.0873 -0.0970
vn -0.9195 -0.3809 -0.0968
vn -0.7038 -0.7038 -0.0968
vn -0.3809 -0.9195 -0.0968
vn -0.0970 -0.9905 -0.0970
vn 0.0970 -0.9905 -0.0970
vn 0.3809 -0.9195 -0.0968
vn 0.7038 -0.7038 -0.0968
vn 0.9195 -0.3809 -0.0968
vn 0.9914 -0.0873 -0.0970
vn 0.9999 0.0123 -0.0025
vn 0.9999 0.0112 -0.0028
vn 0.9996 0.0279 -0.0038
vn 0.9963 0.0849 -0.0090
vn 0.6408 0.7640 -0.0748
vn -0.9953 0.0875 -0.0414
vn -0.6198 0.7263 -0.2971
vn -0.9995 0.0285 -0.0168
vn -0.9999 0.0113 -0.0121
vn -0.9999 0.0122 -0.0111
vn -0.9227 -0.0811 -0.3769
vn -0.8567 -0.3549 -0.3744
vn -0.6557 -0.6557 -0.3744
vn -0.3548 -0.8567 -0.3744
vn -0.0901 -0.9218 -0.3771
vn 0.0901 -0.9218 -0.3771
vn 0.3549 -0.8567 -0.3744
vn 0.6557 -0.6557 -0.3744
vn 0.8567 -0.3549 -0.3744
vn 0.9227 -0.0812 -0.3769
vn 0.9999 0.0123 -0.0110
vn 0.9999 0.0113 -0.0121
vn 0.9995 0.0285 -0.0168
vn 0.9953 0.0875 -0.0414
vn 0.6198 0.7263 -0.2971
vn -0.9906 0.0871 -0.1052
vn -0.6092 0.5667 -0.5548
vn -0.9987 0.0287 -0.0426
vn -0.9995 0.0115 -0.0304
vn -0.9995 0.0120 -0.0276
vn -0.7121 -0.0635 -0.6992
vn -0.6641 -0.2751 -0.6952
vn -0.5083 -0.5083 -0.6952
vn -0.2751 -0.6641 -0.6952
vn -0.0703 -0.7112 -0.6995
vn 0.0703 -0.7112 -0.6995
vn 0.2751 -0.6641 -0.6952
vn 0.5083 -0.5083 -0.6952
vn 0.6641 -0.2751 -0.6952
vn 0.7121 -0.0637 -0.6992
vn 0.9995 0.0122 -0.0275
vn 0.9995 0.0115 -0.0304
vn 0.9987 0.0287 -0.0426
vn 0.9906 0.0871 -0.1052
vn 0.6092 0.5667 -0.5548
vn -0.9472 0.0809 -0.3104
vn -0.5786 0.3293 -0.7462
vn -0.9908 0.0287 -0.1322
vn -0.9956 0.0120 -0.0930
vn -0.9965 0.0117 -0.0825
vn -0.3936 -0.0362 -0.9186
vn -0.3724 -0.1543 -0.9152
vn -0.2850 -0.2850 -0.9152
vn -0.1543 -0.3724 -0.9152
vn -0.0398 -0.3925 -0.9189
vn 0.0398 -0.3925 -0.9189
vn 0.1543 -0.3724 -0.9152
vn 0.2850 -0.2850 -0.9152
vn 0.3724 -0.1543 -0.9152
vn 0.3936 -0.0362 -0.9186
vn 0.9965 0.0119 -0.0825
vn 0.9956 0.0120 -0.0930
vn 0.9908 0.0287 -0.1322
vn 0.9472 0.0809 -0.3104
vn 0.5786 0.3293 -0.7462
vn -0.6363 0.0759 -0.7677
vn -0.0816 -0.0801 -0.9934
vn 0.0816 -0.0801 -0.9934
vn 0.6362 0.0760 -0.7678
vn 0.9998 -0.0181 -0.0000
vn 0.0000 1.0000 0.0000
vn -0.9998 -0.0181 -0.0000
vn 0.0000 -1.0000 -0.0000
# 173 vertex normals

vt 0.0124 0.5049 0.0000
vt 0.9924 0.5226 0.0000
vt 0.9924 0.5235 0.0000
vt 0.0124 0.5413 0.0000
vt 0.5829 0.7193 0.0000
vt 0.5826 0.7193 0.0000
vt 0.5823 0.7193 0.0000
vt 0.5821 0.7193 0.0000
vt 0.5821 0.6612 0.0000
vt 0.5829 0.6612 0.0000
vt 0.5821 0.6611 0.0000
vt 0.5823 0.6611 0.0000
vt 0.5826 0.6611 0.0000
vt 0.5829 0.6611 0.0000
vt 0.6368 0.6611 0.0000
vt 0.6368 0.6612 0.0000
vt 0.6371 0.6611 0.0000
vt 0.6374 0.6611 0.0000
vt 0.6376 0.6611 0.0000
vt 0.6376 0.6612 0.0000
vt 0.6376 0.7193 0.0000
vt 0.6368 0.7193 0.0000
vt 0.6374 0.7193 0.0000
vt 0.6371 0.7193 0.0000
vt 0.5818 0.7193 0.0000
vt 0.5815 0.7193 0.0000
vt 0.5813 0.7193 0.0000
vt 0.5813 0.6612 0.0000
vt 0.5815 0.6611 0.0000
vt 0.5818 0.6611 0.0000
vt 0.6379 0.6611 0.0000
vt 0.6382 0.6611 0.0000
vt 0.6384 0.6612 0.0000
vt 0.6384 0.7193 0.0000
vt 0.6382 0.7193 0.0000
vt 0.6379 0.7193 0.0000
vt 0.5821 0.7194 0.0000
vt 0.5829 0.7194 0.0000
vt 0.5810 0.7193 0.0000
vt 0.5809 0.7193 0.0000
vt 0.5809 0.6612 0.0000
vt 0.5810 0.6611 0.0000
vt 0.6387 0.6611 0.0000
vt 0.6388 0.6612 0.0000
vt 0.6388 0.7193 0.0000
vt 0.6387 0.7193 0.0000
vt 0.6376 0.7194 0.0000
vt 0.6368 0.7194 0.0000
vt 0.5807 0.7193 0.0000
vt 0.5807 0.6612 0.0000
vt 0.5809 0.6611 0.0000
vt 0.5813 0.6611 0.0000
vt 0.6384 0.6611 0.0000
vt 0.6388 0.6611 0.0000
vt 0.6390 0.6612 0.0000
vt 0.6390 0.7193 0.0000
vt 0.5807 0.6611 0.0000
vt 0.5807 0.7758 0.0000
vt 0.5808 0.6611 0.0000
vt 0.5808 0.7758 0.0000
vt 0.6357 0.6611 0.0000
vt 0.6357 0.7758 0.0000
vt 0.6358 0.6611 0.0000
vt 0.6358 0.7758 0.0000
vt 0.6359 0.6611 0.0000
vt 0.6359 0.7758 0.0000
vt 0.6379 0.7758 0.0000
vt 0.6380 0.6611 0.0000
vt 0.6380 0.7758 0.0000
vt 0.6929 0.6611 0.0000
vt 0.6929 0.7758 0.0000
vt 0.6930 0.6611 0.0000
vt 0.6930 0.7758 0.0000
vt 0.6931 0.6611 0.0000
vt 0.6931 0.7758 0.0000
vt 0.6954 0.6611 0.0000
vt 0.6954 0.7758 0.0000
vt 0.5820 0.7210 0.0000
vt 0.5827 0.7210 0.0000
vt 0.5814 0.7210 0.0000
vt 0.5813 0.7210 0.0000
vt 0.5810 0.7210 0.0000
vt 0.5809 0.7210 0.0000
vt 0.5807 0.7210 0.0000
vt 0.5809 0.7753 0.0000
vt 0.5807 0.7753 0.0000
vt 0.5810 0.7753 0.0000
vt 0.5814 0.7753 0.0000
vt 0.5813 0.7753 0.0000
vt 0.5820 0.7753 0.0000
vt 0.5827 0.7753 0.0000
vt 0.5827 0.7754 0.0000
vt 0.6331 0.7753 0.0000
vt 0.6331 0.7754 0.0000
vt 0.6338 0.7753 0.0000
vt 0.6344 0.7753 0.0000
vt 0.6345 0.7753 0.0000
vt 0.6348 0.7753 0.0000
vt 0.6349 0.7753 0.0000
vt 0.6351 0.7753 0.0000
vt 0.6349 0.7210 0.0000
vt 0.6351 0.7210 0.0000
vt 0.6348 0.7210 0.0000
vt 0.6344 0.7210 0.0000
vt 0.6345 0.7210 0.0000
vt 0.6338 0.7210 0.0000
vt 0.6331 0.7210 0.0000
vt 0.5822 0.7210 0.0000
vt 0.5817 0.7210 0.0000
vt 0.5817 0.7753 0.0000
vt 0.5822 0.7753 0.0000
vt 0.6336 0.7753 0.0000
vt 0.6341 0.7753 0.0000
vt 0.6341 0.7210 0.0000
vt 0.6336 0.7210 0.0000
vt 0.5824 0.7210 0.0000
vt 0.5824 0.7753 0.0000
vt 0.6334 0.7753 0.0000
vt 0.6334 0.7210 0.0000
# 119 texture coords

g ChamferBox001
f 1/1/1 2/2/1 3/3/1 
f 3/3/1 4/4/1 1/1/1 
f 5/5/2 6/5/3 7/6/4 
f 5/5/2 7/6/4 8/7/5 
f 5/5/2 8/7/5 9/8/6 
f 5/5/2 9/8/6 10/8/7 
f 11/9/8 12/10/9 5/5/2 
f 5/5/2 10/8/7 11/9/8 
f 12/10/9 11/9/8 13/11/10 
f 12/10/9 13/11/10 14/12/11 
f 12/10/9 14/12/11 15/13/12 
f 12/10/9 15/13/12 16/14/13 
f 17/15/14 18/16/15 12/10/9 
f 12/10/9 16/14/13 17/15/14 
f 18/16/15 17/15/14 19/17/16 
f 18/16/15 19/17/16 20/18/17 
f 18/16/15 20/18/17 21/19/18 
f 18/16/15 21/19/18 22/20/19 
f 23/21/20 24/22/21 18/16/15 
f 18/16/15 22/20/19 23/21/20 
f 24/22/21 23/21/20 25/21/22 
f 24/22/21 25/21/22 26/23/23 
f 24/22/21 26/23/23 27/24/24 
f 24/22/21 27/24/24 28/22/25 
f 6/5/3 5/5/2 24/22/21 
f 24/22/21 28/22/25 6/5/3 
f 29/7/26 7/6/4 6/5/3 
f 6/5/3 30/5/27 29/7/26 
f 31/25/28 8/7/5 7/6/4 
f 7/6/4 29/7/26 31/25/28 
f 32/26/29 9/8/6 8/7/5 
f 8/7/5 31/25/28 32/26/29 
f 33/27/30 10/8/7 9/8/6 
f 9/8/6 32/26/29 33/27/30 
f 34/28/31 11/9/8 10/8/7 
f 10/8/7 33/27/30 34/28/31 
f 35/29/32 13/11/10 11/9/8 
f 11/9/8 34/28/31 35/29/32 
f 36/30/33 14/12/11 13/11/10 
f 13/11/10 35/29/32 36/30/33 
f 37/12/34 15/13/12 14/12/11 
f 14/12/11 36/30/33 37/12/34 
f 38/14/35 16/14/13 15/13/12 
f 15/13/12 37/12/34 38/14/35 
f 39/15/36 17/15/14 16/14/13 
f 16/14/13 38/14/35 39/15/36 
f 40/18/37 19/17/16 17/15/14 
f 17/15/14 39/15/36 40/18/37 
f 41/31/38 20/18/17 19/17/16 
f 19/17/16 40/18/37 41/31/38 
f 42/32/39 21/19/18 20/18/17 
f 20/18/17 41/31/38 42/32/39 
f 43/33/40 22/20/19 21/19/18 
f 21/19/18 42/32/39 43/33/40 
f 44/34/41 23/21/20 22/20/19 
f 22/20/19 43/33/40 44/34/41 
f 45/35/42 25/21/22 23/21/20 
f 23/21/20 44/34/41 45/35/42 
f 46/36/43 26/23/23 25/21/22 
f 25/21/22 45/35/42 46/36/43 
f 47/23/44 27/24/24 26/23/23 
f 26/23/23 46/36/43 47/23/44 
f 48/22/45 28/22/25 27/24/24 
f 27/24/24 47/23/44 48/22/45 
f 30/5/27 6/5/3 28/22/25 
f 28/22/25 48/22/45 30/5/27 
f 49/37/46 29/7/26 30/5/27 
f 30/5/27 50/38/47 49/37/46 
f 51/26/48 31/25/28 29/7/26 
f 29/7/26 49/37/46 51/26/48 
f 52/39/49 32/26/29 31/25/28 
f 31/25/28 51/26/48 52/39/49 
f 53/40/50 33/27/30 32/26/29 
f 32/26/29 52/39/49 53/40/50 
f 54/41/51 34/28/31 33/27/30 
f 33/27/30 53/40/50 54/41/51 
f 55/42/52 35/29/32 34/28/31 
f 34/28/31 54/41/51 55/42/52 
f 56/29/53 36/30/33 35/29/32 
f 35/29/32 55/42/52 56/29/53 
f 57/11/54 37/12/34 36/30/33 
f 36/30/33 56/29/53 57/11/54 
f 58/14/55 38/14/35 37/12/34 
f 37/12/34 57/11/54 58/14/55 
f 59/15/56 39/15/36 38/14/35 
f 38/14/35 58/14/55 59/15/56 
f 60/19/57 40/18/37 39/15/36 
f 39/15/36 59/15/56 60/19/57 
f 61/32/58 41/31/38 40/18/37 
f 40/18/37 60/19/57 61/32/58 
f 62/43/59 42/32/39 41/31/38 
f 41/31/38 61/32/58 62/43/59 
f 63/44/60 43/33/40 42/32/39 
f 42/32/39 62/43/59 63/44/60 
f 64/45/61 44/34/41 43/33/40 
f 43/33/40 63/44/60 64/45/61 
f 65/46/62 45/35/42 44/34/41 
f 44/34/41 64/45/61 65/46/62 
f 66/35/63 46/36/43 45/35/42 
f 45/35/42 65/46/62 66/35/63 
f 67/47/64 47/23/44 46/36/43 
f 46/36/43 66/35/63 67/47/64 
f 68/48/65 48/22/45 47/23/44 
f 47/23/44 67/47/64 68/48/65 
f 50/38/47 30/5/27 48/22/45 
f 48/22/45 68/48/65 50/38/47 
f 69/37/66 49/37/46 50/38/47 
f 50/38/47 70/38/67 69/37/66 
f 71/27/68 51/26/48 49/37/46 
f 49/37/46 69/37/66 71/27/68 
f 72/40/69 52/39/49 51/26/48 
f 51/26/48 71/27/68 72/40/69 
f 73/49/70 53/40/50 52/39/49 
f 52/39/49 72/40/69 73/49/70 
f 74/50/71 54/41/51 53/40/50 
f 53/40/50 73/49/70 74/50/71 
f 75/51/72 55/42/52 54/41/51 
f 54/41/51 74/50/71 75/51/72 
f 76/52/73 56/29/53 55/42/52 
f 55/42/52 75/51/72 76/52/73 
f 77/11/74 57/11/54 56/29/53 
f 56/29/53 76/52/73 77/11/74 
f 78/14/75 58/14/55 57/11/54 
f 57/11/54 77/11/74 78/14/75 
f 79/15/76 59/15/56 58/14/55 
f 58/14/55 78/14/75 79/15/76 
f 80/19/77 60/19/57 59/15/56 
f 59/15/56 79/15/76 80/19/77 
f 81/53/78 61/32/58 60/19/57 
f 60/19/57 80/19/77 81/53/78 
f 82/54/79 62/43/59 61/32/58 
f 61/32/58 81/53/78 82/54/79 
f 83/55/80 63/44/60 62/43/59 
f 62/43/59 82/54/79 83/55/80 
f 84/56/81 64/45/61 63/44/60 
f 63/44/60 83/55/80 84/56/81 
f 85/45/82 65/46/62 64/45/61 
f 64/45/61 84/56/81 85/45/82 
f 86/34/83 66/35/63 65/46/62 
f 65/46/62 85/45/82 86/34/83 
f 87/47/84 67/47/64 66/35/63 
f 66/35/63 86/34/83 87/47/84 
f 88/48/85 68/48/65 67/47/64 
f 67/47/64 87/47/84 88/48/85 
f 70/38/67 50/38/47 68/48/65 
f 68/48/65 88/48/85 70/38/67 
f 89/57/86 69/58/66 70/58/67 
f 70/58/67 90/57/87 89/57/86 
f 91/59/88 71/60/68 69/58/66 
f 69/58/66 89/57/86 91/59/88 
f 92/59/89 72/60/69 71/60/68 
f 71/60/68 91/59/88 92/59/89 
f 93/59/90 73/60/70 72/60/69 
f 72/60/69 92/59/89 93/59/90 
f 94/61/91 74/62/71 73/60/70 
f 73/60/70 93/59/90 94/61/91 
f 95/63/92 75/64/72 74/62/71 
f 74/62/71 94/61/91 95/63/92 
f 96/63/93 76/64/73 75/64/72 
f 75/64/72 95/63/92 96/63/93 
f 97/63/94 77/64/74 76/64/73 
f 76/64/73 96/63/93 97/63/94 
f 98/65/95 78/66/75 77/64/74 
f 77/64/74 97/63/94 98/65/95 
f 99/31/96 79/67/76 78/66/75 
f 78/66/75 98/65/95 99/31/96 
f 100/31/97 80/67/77 79/67/76 
f 79/67/76 99/31/96 100/31/97 
f 101/68/98 81/69/78 80/67/77 
f 80/67/77 100/31/97 101/68/98 
f 102/68/99 82/69/79 81/69/78 
f 81/69/78 101/68/98 102/68/99 
f 103/68/100 83/69/80 82/69/79 
f 82/69/79 102/68/99 103/68/100 
f 104/70/101 84/71/81 83/69/80 
f 83/69/80 103/68/100 104/70/101 
f 105/72/102 85/73/82 84/71/81 
f 84/71/81 104/70/101 105/72/102 
f 106/72/103 86/73/83 85/73/82 
f 85/73/82 105/72/102 106/72/103 
f 107/72/104 87/73/84 86/73/83 
f 86/73/83 106/72/103 107/72/104 
f 108/74/105 88/75/85 87/73/84 
f 87/73/84 107/72/104 108/74/105 
f 90/76/87 70/77/67 88/75/85 
f 88/75/85 108/74/105 90/76/87 
f 109/78/106 89/78/86 90/79/87 
f 90/79/87 110/79/107 109/78/106 
f 111/80/108 91/81/88 89/78/86 
f 89/78/86 109/78/106 111/80/108 
f 112/82/109 92/83/89 91/81/88 
f 91/81/88 111/80/108 112/82/109 
f 113/83/110 93/84/90 92/83/89 
f 92/83/89 112/82/109 113/83/110 
f 114/85/111 94/86/91 93/84/90 
f 93/84/90 113/83/110 114/85/111 
f 115/87/112 95/85/92 94/86/91 
f 94/86/91 114/85/111 115/87/112 
f 116/88/113 96/89/93 95/85/92 
f 95/85/92 115/87/112 116/88/113 
f 117/90/114 97/90/94 96/89/93 
f 96/89/93 116/88/113 117/90/114 
f 118/91/115 98/92/95 97/90/94 
f 97/90/94 117/90/114 118/91/115 
f 119/93/116 99/94/96 98/92/95 
f 98/92/95 118/91/115 119/93/116 
f 120/95/117 100/95/97 99/94/96 
f 99/94/96 119/93/116 120/95/117 
f 121/96/118 101/97/98 100/95/97 
f 100/95/97 120/95/117 121/96/118 
f 122/98/119 102/99/99 101/97/98 
f 101/97/98 121/96/118 122/98/119 
f 123/99/120 103/100/100 102/99/99 
f 102/99/99 122/98/119 123/99/120 
f 124/101/121 104/102/101 103/100/100 
f 103/100/100 123/99/120 124/101/121 
f 125/103/122 105/101/102 104/102/101 
f 104/102/101 124/101/121 125/103/122 
f 126/104/123 106/105/103 105/101/102 
f 105/101/102 125/103/122 126/104/123 
f 127/106/124 107/106/104 106/105/103 
f 106/105/103 126/104/123 127/106/124 
f 128/107/125 108/107/105 107/106/104 
f 107/106/104 127/106/124 128/107/125 
f 110/79/107 90/79/87 108/107/105 
f 108/107/105 128/107/125 110/79/107 
f 129/108/126 109/78/106 110/79/107 
f 110/79/107 130/79/127 129/108/126 
f 131/109/128 111/80/108 109/78/106 
f 109/78/106 129/108/126 131/109/128 
f 132/80/129 112/82/109 111/80/108 
f 111/80/108 131/109/128 132/80/129 
f 133/81/130 113/83/110 112/82/109 
f 112/82/109 132/80/129 133/81/130 
f 134/89/131 114/85/111 113/83/110 
f 113/83/110 133/81/130 134/89/131 
f 135/88/132 115/87/112 114/85/111 
f 114/85/111 134/89/131 135/88/132 
f 136/110/133 116/88/113 115/87/112 
f 115/87/112 135/88/132 136/110/133 
f 137/111/134 117/90/114 116/88/113 
f 116/88/113 136/110/133 137/111/134 
f 138/91/135 118/91/115 117/90/114 
f 117/90/114 137/111/134 138/91/135 
f 139/93/136 119/93/116 118/91/115 
f 118/91/115 138/91/135 139/93/136 
f 140/112/137 120/95/117 119/93/116 
f 119/93/116 139/93/136 140/112/137 
f 141/113/138 121/96/118 120/95/117 
f 120/95/117 140/112/137 141/113/138 
f 142/96/139 122/98/119 121/96/118 
f 121/96/118 141/113/138 142/96/139 
f 143/97/140 123/99/120 122/98/119 
f 122/98/119 142/96/139 143/97/140 
f 144/105/141 124/101/121 123/99/120 
f 123/99/120 143/97/140 144/105/141 
f 145/104/142 125/103/122 124/101/121 
f 124/101/121 144/105/141 145/104/142 
f 146/114/143 126/104/123 125/103/122 
f 125/103/122 145/104/142 146/114/143 
f 147/115/144 127/106/124 126/104/123 
f 126/104/123 146/114/143 147/115/144 
f 148/107/145 128/107/125 127/106/124 
f 127/106/124 147/115/144 148/107/145 
f 130/79/127 110/79/107 128/107/125 
f 128/107/125 148/107/145 130/79/127 
f 149/116/146 129/108/126 130/79/127 
f 130/79/127 150/79/147 149/116/146 
f 151/108/148 131/109/128 129/108/126 
f 129/108/126 149/116/146 151/108/148 
f 152/78/149 132/80/129 131/109/128 
f 131/109/128 151/108/148 152/78/149 
f 153/78/150 133/81/130 132/80/129 
f 132/80/129 152/78/149 153/78/150 
f 154/90/151 134/89/131 133/81/130 
f 133/81/130 153/78/150 154/90/151 
f 155/90/152 135/88/132 134/89/131 
f 134/89/131 154/90/151 155/90/152 
f 156/111/153 136/110/133 135/88/132 
f 135/88/132 155/90/152 156/111/153 
f 157/117/154 137/111/134 136/110/133 
f 136/110/133 156/111/153 157/117/154 
f 158/91/155 138/91/135 137/111/134 
f 137/111/134 157/117/154 158/91/155 
f 159/93/156 139/93/136 138/91/135 
f 138/91/135 158/91/155 159/93/156 
f 160/118/157 140/112/137 139/93/136 
f 139/93/136 159/93/156 160/118/157 
f 161/112/158 141/113/138 140/112/137 
f 140/112/137 160/118/157 161/112/158 
f 162/95/159 142/96/139 141/113/138 
f 141/113/138 161/112/158 162/95/159 
f 163/95/160 143/97/140 142/96/139 
f 142/96/139 162/95/159 163/95/160 
f 164/106/161 144/105/141 143/97/140 
f 143/97/140 163/95/160 164/106/161 
f 165/106/162 145/104/142 144/105/141 
f 144/105/141 164/106/161 165/106/162 
f 166/115/163 146/114/143 145/104/142 
f 145/104/142 165/106/162 166/115/163 
f 167/119/164 147/115/144 146/114/143 
f 146/114/143 166/115/163 167/119/164 
f 168/107/165 148/107/145 147/115/144 
f 147/115/144 167/119/164 168/107/165 
f 150/79/147 130/79/127 148/107/145 
f 148/107/145 168/107/165 150/79/147 
f 150/79/147 169/79/166 149/116/146 
f 149/116/146 169/79/166 151/108/148 
f 151/108/148 169/79/166 152/78/149 
f 152/78/149 169/79/166 153/78/150 
f 170/91/167 154/90/151 153/78/150 
f 153/78/150 169/79/166 170/91/167 
f 154/90/151 170/91/167 155/90/152 
f 155/90/152 170/91/167 156/111/153 
f 156/111/153 170/91/167 157/117/154 
f 157/117/154 170/91/167 158/91/155 
f 171/93/168 159/93/156 158/91/155 
f 158/91/155 170/91/167 171/93/168 
f 159/93/156 171/93/168 160/118/157 
f 160/118/157 171/93/168 161/112/158 
f 161/112/158 171/93/168 162/95/159 
f 162/95/159 171/93/168 163/95/160 
f 172/107/169 164/106/161 163/95/160 
f 163/95/160 171/93/168 172/107/169 
f 164/106/161 172/107/169 165/106/162 
f 165/106/162 172/107/169 166/115/163 
f 166/115/163 172/107/169 167/119/164 
f 167/119/164 172/107/169 168/107/165 
f 169/79/166 150/79/147 168/107/165 
f 168/107/165 172/107/169 169/79/166 
f 170/1/167 169/2/166 172/3/169 
f 172/3/169 171/4/168 170/1/167 
f 5/5/170 12/10/170 4/10/170 
f 4/10/170 3/5/170 5/5/170 
f 12/10/171 18/16/171 1/16/171 
f 1/16/171 4/10/171 12/10/171 
f 18/16/172 24/22/172 2/22/172 
f 2/22/172 1/16/172 18/16/172 
f 24/22/173 5/5/173 3/5/173 
f 3/5/173 2/22/173 24/22/173 
# 340 faces

